<?xml version="1.0" encoding="utf-8"?>
<!-- Generator: Adobe Illustrator 25.4.6, SVG Export Plug-In . SVG Version: 6.00 Build 0)  -->
<svg version="1.1" id="Layer_1" xmlns="http://www.w3.org/2000/svg" xmlns:xlink="http://www.w3.org/1999/xlink" x="0px" y="0px"
	 viewBox="0 0 55.9 55.9" style="enable-background:new 0 0 55.9 55.9;" xml:space="preserve">
<style type="text/css">
	.st0{fill:#C1C9CB;}
	.st1{fill:#00001F;}
	.st2{fill:none;stroke:#C1C9CB;stroke-width:1.5;stroke-linecap:round;stroke-linejoin:round;stroke-miterlimit:10;}
	.st3{filter:url(#Adobe_OpacityMaskFilter);}
	.st4{clip-path:url(#SVGID_00000067206868957124361770000010689605104406587300_);}
	.st5{clip-path:url(#SVGID_00000110461604992513537190000006527485164146623911_);}
	
		.st6{clip-path:url(#SVGID_00000008851435932689615840000002128978911084298883_);fill:url(#SVGID_00000005949960279124716830000013960830019074998702_);}
	
		.st7{clip-path:url(#SVGID_00000067206868957124361770000010689605104406587300_);mask:url(#SVGID_00000168800797891504398660000017844076942490751891_);fill:url(#SVGID_00000122720888984729537210000014955532151028762018_);}
	.st8{filter:url(#Adobe_OpacityMaskFilter_00000075121872314478937240000008164467937459066806_);}
	.st9{clip-path:url(#SVGID_00000017479812593062881410000010040492510115570337_);}
	.st10{clip-path:url(#SVGID_00000090257031850405807910000014245988602261717438_);}
	
		.st11{clip-path:url(#SVGID_00000179618407666827762210000001747783412292370331_);fill:url(#SVGID_00000116943496861077684810000008019345872180889230_);}
	
		.st12{clip-path:url(#SVGID_00000017479812593062881410000010040492510115570337_);mask:url(#SVGID_00000005986706682922326800000005579633254564195775_);fill:url(#SVGID_00000031205647204843703760000001564879434992721045_);}
	.st13{filter:url(#Adobe_OpacityMaskFilter_00000102504395108203682290000014995311218760768385_);}
	.st14{clip-path:url(#SVGID_00000079476024347976775760000011330400332620025222_);}
	.st15{clip-path:url(#SVGID_00000134941139734348599470000014372695314747894442_);}
	
		.st16{clip-path:url(#SVGID_00000110441250922290139620000004860093168001371531_);fill:url(#SVGID_00000001666221043211422960000004492725198718635952_);}
	
		.st17{clip-path:url(#SVGID_00000079476024347976775760000011330400332620025222_);mask:url(#SVGID_00000163072817968949902390000003923836936781274503_);fill:url(#SVGID_00000119104445465681058120000005933096559941984699_);}
	.st18{fill:none;stroke:#26A9E0;stroke-miterlimit:10;}
	.st19{fill:#26A9E0;}
</style>
<path class="st0" d="M47.5,55.9h-39c-4.7,0-8.5-3.8-8.5-8.5V8.5C0,3.8,3.8,0,8.5,0h38.9c4.7,0,8.5,3.8,8.5,8.5v38.9
	C55.9,52.1,52.1,55.9,47.5,55.9z M8.5,1C4.4,1,1,4.3,1,8.5v38.9c0,4.1,3.3,7.5,7.5,7.5h38.9c4.1,0,7.5-3.3,7.5-7.5V8.5
	c0-4.1-3.3-7.5-7.5-7.5H8.5z"/>
<g>
	<g>
		<g>
			<path class="st1" d="M13.3,27.3h3.4c0.5,0,0.9,0.1,1.2,0.3c0.4,0.2,0.6,0.4,0.8,0.7c0.2,0.3,0.3,0.6,0.3,1s-0.1,0.8-0.3,1.1
				s-0.5,0.5-0.8,0.7c0.4,0.2,0.8,0.4,1,0.7c0.2,0.3,0.4,0.7,0.4,1.2c0,0.4-0.1,0.8-0.3,1.1s-0.5,0.6-0.8,0.7
				c-0.4,0.2-0.8,0.3-1.3,0.3h-3.6V27.3z M16.7,30.7c0.4,0,0.7-0.1,1-0.3c0.2-0.2,0.4-0.5,0.4-0.9c0-0.3-0.1-0.6-0.3-0.8
				s-0.5-0.3-0.9-0.3h-2.3v2.3C14.6,30.7,16.7,30.7,16.7,30.7z M16.8,34c0.4,0,0.7-0.1,1-0.3s0.4-0.5,0.4-0.9s-0.1-0.7-0.4-0.9
				c-0.3-0.2-0.6-0.3-1-0.3h-2.4V34C14.4,34,16.8,34,16.8,34z"/>
			<path class="st1" d="M23.2,27.3h1.9l2.8,7.7h-1.2l-0.6-1.8h-3.8L21.7,35h-1.2L23.2,27.3z M25.6,32.2l-1.5-4.3l-1.6,4.3H25.6z"/>
			<path class="st1" d="M32.8,35.1c-0.7,0-1.4-0.2-2-0.5c-0.6-0.4-1.1-0.8-1.4-1.4s-0.5-1.3-0.5-2.1s0.2-1.4,0.5-2s0.8-1.1,1.4-1.4
				c0.6-0.4,1.2-0.5,2-0.5s1.5,0.2,2.1,0.7c0.6,0.4,1.1,1,1.4,1.7l-1.1,0.3c-0.2-0.5-0.6-0.9-1-1.2s-0.9-0.4-1.5-0.4
				c-0.5,0-1,0.1-1.4,0.4s-0.8,0.6-1,1s-0.4,0.9-0.4,1.4s0.1,1,0.4,1.4s0.6,0.8,1,1s0.9,0.4,1.4,0.4c0.6,0,1-0.1,1.4-0.4
				s0.7-0.7,1-1.1l1.1,0.3c-0.3,0.7-0.8,1.3-1.4,1.7S33.6,35.1,32.8,35.1z"/>
			<path class="st1" d="M38.7,27.3v4.2l3.8-4.2h1.4l-3.2,3.5L44,35h-1.4L40,31.7l-1.3,1.4V35h-1.1v-7.7
				C37.6,27.3,38.7,27.3,38.7,27.3z"/>
		</g>
	</g>
</g>
<g>
	<g>
		<g>
			<path class="st1" d="M20.8,38.8h1.1v6.6h3.9v1.1h-5V38.8z"/>
			<path class="st1" d="M27.2,38.8h1.1v7.7h-1.1V38.8z"/>
			<path class="st1" d="M32.3,39.9h-2.6v-1.1h6.2v1.1h-2.5v6.6h-1.1V39.9z"/>
		</g>
	</g>
</g>
<polyline class="st2" points="4.2,17.3 4.2,7.7 52.1,7.7 52.1,17.3 "/>
<g>
	<g>
		<g>
			<defs>
				<rect id="SVGID_1_" x="8.4" y="8.5" width="10.5" height="8.3"/>
			</defs>
			<clipPath id="SVGID_00000155835808298628233050000009863972011837936264_">
				<use xlink:href="#SVGID_1_"  style="overflow:visible;"/>
			</clipPath>
			<defs>
				<filter id="Adobe_OpacityMaskFilter" filterUnits="userSpaceOnUse" x="8.4" y="8.5" width="10.5" height="8.3">
					<feColorMatrix  type="matrix" values="1 0 0 0 0  0 1 0 0 0  0 0 1 0 0  0 0 0 1 0"/>
				</filter>
			</defs>
			
				<mask maskUnits="userSpaceOnUse" x="8.4" y="8.5" width="10.5" height="8.3" id="SVGID_00000168800797891504398660000017844076942490751891_">
				<g class="st3">
					<g>
						<g>
							<defs>
								<rect id="SVGID_00000077322673575374902910000001532852583540071299_" x="8.4" y="8.5" width="10.5" height="8.3"/>
							</defs>
							
								<clipPath id="SVGID_00000129891837939399381020000012059736097252875186_" style="clip-path:url(#SVGID_00000155835808298628233050000009863972011837936264_);">
								<use xlink:href="#SVGID_00000077322673575374902910000001532852583540071299_"  style="overflow:visible;"/>
							</clipPath>
						</g>
						<g>
							<defs>
								<rect id="SVGID_00000084503179129184614240000013859058572687342269_" x="8.4" y="8.5" width="10.5" height="8.3"/>
							</defs>
							<defs>
								<rect id="SVGID_00000034793578256796021130000007863903586853411240_" x="8.4" y="8.5" width="10.5" height="8.3"/>
							</defs>
							
								<clipPath id="SVGID_00000155838996027427386520000001950946500373416082_" style="clip-path:url(#SVGID_00000155835808298628233050000009863972011837936264_);">
								<use xlink:href="#SVGID_00000084503179129184614240000013859058572687342269_"  style="overflow:visible;"/>
							</clipPath>
							
								<clipPath id="SVGID_00000114772522743958643250000013493810359904645299_" style="clip-path:url(#SVGID_00000155838996027427386520000001950946500373416082_);">
								<use xlink:href="#SVGID_00000034793578256796021130000007863903586853411240_"  style="overflow:visible;"/>
							</clipPath>
							
								<linearGradient id="SVGID_00000150805645880314738090000011021432467301636746_" gradientUnits="userSpaceOnUse" x1="-829.9296" y1="370.634" x2="-828.9291" y2="370.634" gradientTransform="matrix(0 8.296 8.296 0 -3061.1296 6893.5742)">
								<stop  offset="0" style="stop-color:#FFFFFF"/>
								<stop  offset="0.1592" style="stop-color:#FFFFFF"/>
								<stop  offset="0.2541" style="stop-color:#DADADA"/>
								<stop  offset="0.4629" style="stop-color:#8D8D8D"/>
								<stop  offset="0.6493" style="stop-color:#515151"/>
								<stop  offset="0.8065" style="stop-color:#252525"/>
								<stop  offset="0.9284" style="stop-color:#0A0A0A"/>
								<stop  offset="1" style="stop-color:#000000"/>
							</linearGradient>
							
								<rect x="8.4" y="8.5" style="clip-path:url(#SVGID_00000114772522743958643250000013493810359904645299_);fill:url(#SVGID_00000150805645880314738090000011021432467301636746_);" width="10.5" height="8.3"/>
						</g>
					</g>
				</g>
			</mask>
			
				<linearGradient id="SVGID_00000091013887182419843890000009601753624423352216_" gradientUnits="userSpaceOnUse" x1="-829.9296" y1="370.634" x2="-828.9291" y2="370.634" gradientTransform="matrix(0 8.296 8.296 0 -3061.1296 6893.5742)">
				<stop  offset="0" style="stop-color:#FCD500"/>
				<stop  offset="0.1592" style="stop-color:#FCD500"/>
				<stop  offset="0.2382" style="stop-color:#FCDA1E"/>
				<stop  offset="0.4515" style="stop-color:#FDE66B"/>
				<stop  offset="0.6419" style="stop-color:#FEF0A7"/>
				<stop  offset="0.8024" style="stop-color:#FFF7D3"/>
				<stop  offset="0.9268" style="stop-color:#FFFBEE"/>
				<stop  offset="1" style="stop-color:#FFFDF8"/>
			</linearGradient>
			
				<rect x="8.4" y="8.5" style="clip-path:url(#SVGID_00000155835808298628233050000009863972011837936264_);mask:url(#SVGID_00000168800797891504398660000017844076942490751891_);fill:url(#SVGID_00000091013887182419843890000009601753624423352216_);" width="10.5" height="8.3"/>
		</g>
	</g>
</g>
<g>
	<g>
		<g>
			<defs>
				<rect id="SVGID_00000029032205690881166290000001262654422143951499_" x="23.3" y="8.5" width="10.5" height="8.3"/>
			</defs>
			<clipPath id="SVGID_00000093872618310019176010000016214049203040207541_">
				<use xlink:href="#SVGID_00000029032205690881166290000001262654422143951499_"  style="overflow:visible;"/>
			</clipPath>
			<defs>
				
					<filter id="Adobe_OpacityMaskFilter_00000011733356079582079610000010360646500066551431_" filterUnits="userSpaceOnUse" x="23.3" y="8.5" width="10.5" height="8.3">
					<feColorMatrix  type="matrix" values="1 0 0 0 0  0 1 0 0 0  0 0 1 0 0  0 0 0 1 0"/>
				</filter>
			</defs>
			
				<mask maskUnits="userSpaceOnUse" x="23.3" y="8.5" width="10.5" height="8.3" id="SVGID_00000005986706682922326800000005579633254564195775_">
				<g style="filter:url(#Adobe_OpacityMaskFilter_00000011733356079582079610000010360646500066551431_);">
					<g>
						<g>
							<defs>
								<rect id="SVGID_00000034773262937629102220000005796287610441506464_" x="23.3" y="8.5" width="10.5" height="8.3"/>
							</defs>
							
								<clipPath id="SVGID_00000181791713721780334220000001192492742720707978_" style="clip-path:url(#SVGID_00000093872618310019176010000016214049203040207541_);">
								<use xlink:href="#SVGID_00000034773262937629102220000005796287610441506464_"  style="overflow:visible;"/>
							</clipPath>
						</g>
						<g>
							<defs>
								<rect id="SVGID_00000001653861720263080900000006781568956904533675_" x="23.3" y="8.5" width="10.5" height="8.3"/>
							</defs>
							<defs>
								<rect id="SVGID_00000175280744553957251370000010264884815322298262_" x="23.3" y="8.5" width="10.5" height="8.3"/>
							</defs>
							
								<clipPath id="SVGID_00000109735543108796973900000005863454189449878202_" style="clip-path:url(#SVGID_00000093872618310019176010000016214049203040207541_);">
								<use xlink:href="#SVGID_00000001653861720263080900000006781568956904533675_"  style="overflow:visible;"/>
							</clipPath>
							
								<clipPath id="SVGID_00000050644285073456181260000004743175835371505549_" style="clip-path:url(#SVGID_00000109735543108796973900000005863454189449878202_);">
								<use xlink:href="#SVGID_00000175280744553957251370000010264884815322298262_"  style="overflow:visible;"/>
							</clipPath>
							
								<linearGradient id="SVGID_00000061459035234849760440000014967021469483276194_" gradientUnits="userSpaceOnUse" x1="-829.9296" y1="370.6358" x2="-828.9291" y2="370.6358" gradientTransform="matrix(0 8.296 8.296 0 -3046.2446 6893.5742)">
								<stop  offset="0" style="stop-color:#FFFFFF"/>
								<stop  offset="0.1592" style="stop-color:#FFFFFF"/>
								<stop  offset="0.2541" style="stop-color:#DADADA"/>
								<stop  offset="0.4629" style="stop-color:#8D8D8D"/>
								<stop  offset="0.6493" style="stop-color:#515151"/>
								<stop  offset="0.8065" style="stop-color:#252525"/>
								<stop  offset="0.9284" style="stop-color:#0A0A0A"/>
								<stop  offset="1" style="stop-color:#000000"/>
							</linearGradient>
							
								<rect x="23.3" y="8.5" style="clip-path:url(#SVGID_00000050644285073456181260000004743175835371505549_);fill:url(#SVGID_00000061459035234849760440000014967021469483276194_);" width="10.5" height="8.3"/>
						</g>
					</g>
				</g>
			</mask>
			
				<linearGradient id="SVGID_00000027590731930960520250000015315861498989261476_" gradientUnits="userSpaceOnUse" x1="-829.9296" y1="370.6358" x2="-828.9291" y2="370.6358" gradientTransform="matrix(0 8.296 8.296 0 -3046.2446 6893.5742)">
				<stop  offset="0" style="stop-color:#FCD500"/>
				<stop  offset="0.1592" style="stop-color:#FCD500"/>
				<stop  offset="0.2382" style="stop-color:#FCDA1E"/>
				<stop  offset="0.4515" style="stop-color:#FDE66B"/>
				<stop  offset="0.6419" style="stop-color:#FEF0A7"/>
				<stop  offset="0.8024" style="stop-color:#FFF7D3"/>
				<stop  offset="0.9268" style="stop-color:#FFFBEE"/>
				<stop  offset="1" style="stop-color:#FFFDF8"/>
			</linearGradient>
			
				<rect x="23.3" y="8.5" style="clip-path:url(#SVGID_00000093872618310019176010000016214049203040207541_);mask:url(#SVGID_00000005986706682922326800000005579633254564195775_);fill:url(#SVGID_00000027590731930960520250000015315861498989261476_);" width="10.5" height="8.3"/>
		</g>
	</g>
</g>
<g>
	<g>
		<g>
			<defs>
				<rect id="SVGID_00000030471366390338776400000016763183865928505986_" x="38.2" y="8.5" width="10.5" height="8.3"/>
			</defs>
			<clipPath id="SVGID_00000006703435810807800530000005111112961281735307_">
				<use xlink:href="#SVGID_00000030471366390338776400000016763183865928505986_"  style="overflow:visible;"/>
			</clipPath>
			<defs>
				
					<filter id="Adobe_OpacityMaskFilter_00000086678824801197804980000008824167451580939678_" filterUnits="userSpaceOnUse" x="38.2" y="8.5" width="10.5" height="8.3">
					<feColorMatrix  type="matrix" values="1 0 0 0 0  0 1 0 0 0  0 0 1 0 0  0 0 0 1 0"/>
				</filter>
			</defs>
			
				<mask maskUnits="userSpaceOnUse" x="38.2" y="8.5" width="10.5" height="8.3" id="SVGID_00000163072817968949902390000003923836936781274503_">
				<g style="filter:url(#Adobe_OpacityMaskFilter_00000086678824801197804980000008824167451580939678_);">
					<g>
						<g>
							<defs>
								<rect id="SVGID_00000173124582550209509370000000908607240173191581_" x="38.2" y="8.5" width="10.5" height="8.3"/>
							</defs>
							
								<clipPath id="SVGID_00000173158968813615130090000012653223865928090292_" style="clip-path:url(#SVGID_00000006703435810807800530000005111112961281735307_);">
								<use xlink:href="#SVGID_00000173124582550209509370000000908607240173191581_"  style="overflow:visible;"/>
							</clipPath>
						</g>
						<g>
							<defs>
								<rect id="SVGID_00000159429198382755503750000001749451058462303147_" x="38.2" y="8.5" width="10.5" height="8.3"/>
							</defs>
							<defs>
								<rect id="SVGID_00000049189477609551514630000005089571679512313010_" x="38.2" y="8.5" width="10.5" height="8.3"/>
							</defs>
							
								<clipPath id="SVGID_00000109001380986604280720000015835767745598255495_" style="clip-path:url(#SVGID_00000006703435810807800530000005111112961281735307_);">
								<use xlink:href="#SVGID_00000159429198382755503750000001749451058462303147_"  style="overflow:visible;"/>
							</clipPath>
							
								<clipPath id="SVGID_00000093897561643843096760000001678633741211259061_" style="clip-path:url(#SVGID_00000109001380986604280720000015835767745598255495_);">
								<use xlink:href="#SVGID_00000049189477609551514630000005089571679512313010_"  style="overflow:visible;"/>
							</clipPath>
							
								<linearGradient id="SVGID_00000003070137860089670550000016899645713875789202_" gradientUnits="userSpaceOnUse" x1="-829.9296" y1="370.6376" x2="-828.9291" y2="370.6376" gradientTransform="matrix(0 8.296 8.296 0 -3031.3594 6893.5742)">
								<stop  offset="0" style="stop-color:#FFFFFF"/>
								<stop  offset="0.1592" style="stop-color:#FFFFFF"/>
								<stop  offset="0.2541" style="stop-color:#DADADA"/>
								<stop  offset="0.4629" style="stop-color:#8D8D8D"/>
								<stop  offset="0.6493" style="stop-color:#515151"/>
								<stop  offset="0.8065" style="stop-color:#252525"/>
								<stop  offset="0.9284" style="stop-color:#0A0A0A"/>
								<stop  offset="1" style="stop-color:#000000"/>
							</linearGradient>
							
								<rect x="38.2" y="8.5" style="clip-path:url(#SVGID_00000093897561643843096760000001678633741211259061_);fill:url(#SVGID_00000003070137860089670550000016899645713875789202_);" width="10.5" height="8.3"/>
						</g>
					</g>
				</g>
			</mask>
			
				<linearGradient id="SVGID_00000149378452757842491820000002924736568783193779_" gradientUnits="userSpaceOnUse" x1="-829.9296" y1="370.6376" x2="-828.9291" y2="370.6376" gradientTransform="matrix(0 8.296 8.296 0 -3031.3594 6893.5742)">
				<stop  offset="0" style="stop-color:#FCD500"/>
				<stop  offset="0.1592" style="stop-color:#FCD500"/>
				<stop  offset="0.2382" style="stop-color:#FCDA1E"/>
				<stop  offset="0.4515" style="stop-color:#FDE66B"/>
				<stop  offset="0.6419" style="stop-color:#FEF0A7"/>
				<stop  offset="0.8024" style="stop-color:#FFF7D3"/>
				<stop  offset="0.9268" style="stop-color:#FFFBEE"/>
				<stop  offset="1" style="stop-color:#FFFDF8"/>
			</linearGradient>
			
				<rect x="38.2" y="8.5" style="clip-path:url(#SVGID_00000006703435810807800530000005111112961281735307_);mask:url(#SVGID_00000163072817968949902390000003923836936781274503_);fill:url(#SVGID_00000149378452757842491820000002924736568783193779_);" width="10.5" height="8.3"/>
		</g>
	</g>
</g>
<line class="st18" x1="13.5" y1="15" x2="13.5" y2="20"/>
<polygon class="st19" points="12.1,19 13.5,24.5 15,19 "/>
<line class="st18" x1="28.4" y1="15" x2="28.4" y2="20"/>
<polygon class="st19" points="27,19 28.4,24.5 29.9,19 "/>
<line class="st18" x1="43.8" y1="15" x2="43.8" y2="20"/>
<polygon class="st19" points="42.3,19 43.8,24.5 45.2,19 "/>
</svg>
